<svg width="13" height="19" viewBox="0 0 13 19" fill="none" xmlns="http://www.w3.org/2000/svg">
<path d="M4.55 0.896485C4.14658 0.896274 3.75302 1.02054 3.42356 1.25216C3.09411 1.48379 2.84497 1.81136 2.7105 2.18973H1.95C1.43283 2.18973 0.936838 2.39411 0.571142 2.75791C0.205446 3.1217 0 3.61512 0 4.1296V17.0621C0 17.5766 0.205446 18.07 0.571142 18.4338C0.936838 18.7976 1.43283 19.002 1.95 19.002H11.05C11.5672 19.002 12.0632 18.7976 12.4289 18.4338C12.7946 18.07 13 17.5766 13 17.0621V4.1296C13 3.61512 12.7946 3.1217 12.4289 2.75791C12.0632 2.39411 11.5672 2.18973 11.05 2.18973H10.2895C10.155 1.81136 9.90589 1.48379 9.57644 1.25216C9.24698 1.02054 8.85342 0.896274 8.45 0.896485H4.55ZM3.9 2.83636C3.9 2.66486 3.96848 2.50039 4.09038 2.37912C4.21228 2.25786 4.37761 2.18973 4.55 2.18973H8.45C8.62239 2.18973 8.78772 2.25786 8.90962 2.37912C9.03152 2.50039 9.1 2.66486 9.1 2.83636C9.1 3.00785 9.03152 3.17232 8.90962 3.29359C8.78772 3.41485 8.62239 3.48298 8.45 3.48298H4.55C4.37761 3.48298 4.21228 3.41485 4.09038 3.29359C3.96848 3.17232 3.9 3.00785 3.9 2.83636ZM1.95 3.48298H2.7105C2.84497 3.86136 3.09411 4.18893 3.42356 4.42055C3.75302 4.65217 4.14658 4.77644 4.55 4.77623H8.45C8.85342 4.77644 9.24698 4.65217 9.57644 4.42055C9.90589 4.18893 10.155 3.86136 10.2895 3.48298H11.05C11.2224 3.48298 11.3877 3.55111 11.5096 3.67237C11.6315 3.79364 11.7 3.95811 11.7 4.1296V17.0621C11.7 17.2336 11.6315 17.398 11.5096 17.5193C11.3877 17.6406 11.2224 17.7087 11.05 17.7087H1.95C1.77761 17.7087 1.61228 17.6406 1.49038 17.5193C1.36848 17.398 1.3 17.2336 1.3 17.0621V4.1296C1.3 3.95811 1.36848 3.79364 1.49038 3.67237C1.61228 3.55111 1.77761 3.48298 1.95 3.48298ZM10.2102 9.7604C10.3323 9.63899 10.4008 9.47431 10.4008 9.3026C10.4008 9.13088 10.3323 8.9662 10.2102 8.84479C10.0881 8.72337 9.92261 8.65515 9.75 8.65515C9.57739 8.65515 9.41185 8.72337 9.2898 8.84479L5.85 12.268L4.3602 10.7847C4.23815 10.6632 4.07261 10.595 3.9 10.595C3.72739 10.595 3.56185 10.6632 3.4398 10.7847C3.31775 10.9061 3.24918 11.0708 3.24918 11.2425C3.24918 11.4142 3.31775 11.5789 3.4398 11.7003L5.3898 13.6401C5.45018 13.7004 5.52191 13.7481 5.60088 13.7807C5.67984 13.8133 5.7645 13.8301 5.85 13.8301C5.9355 13.8301 6.02015 13.8133 6.09912 13.7807C6.17809 13.7481 6.24982 13.7004 6.3102 13.6401L10.2102 9.7604Z" fill="#333333"/>
</svg>
