<svg width="14" height="18" viewBox="0 0 14 18" fill="none" xmlns="http://www.w3.org/2000/svg">
<path d="M8.4 2.90698L6.3 0.769531V2.1945H1.4C1.0287 2.1945 0.672601 2.34463 0.41005 2.61186C0.1475 2.8791 0 3.24154 0 3.61947V15.0192C0 15.3971 0.1475 15.7596 0.41005 16.0268C0.672601 16.294 1.0287 16.4442 1.4 16.4442H4.2V15.0192H1.4V3.61947H6.3V5.04443L8.4 2.90698ZM5.6 15.7317L7.7 17.8691V16.4442H12.6C12.9713 16.4442 13.3274 16.294 13.5899 16.0268C13.8525 15.7596 14 15.3971 14 15.0192V3.61947C14 3.24154 13.8525 2.8791 13.5899 2.61186C13.3274 2.34463 12.9713 2.1945 12.6 2.1945H9.8V3.61947H12.6V15.0192H7.7V13.5942L5.6 15.7317Z" fill="#333333"/>
</svg>
