<svg width="16" height="19" viewBox="0 0 16 19" fill="none" xmlns="http://www.w3.org/2000/svg">
<path d="M1 0.630249C1 0.480191 0.947321 0.336278 0.853553 0.230171C0.759785 0.124064 0.632608 0.0644531 0.5 0.0644531C0.367392 0.0644531 0.240215 0.124064 0.146447 0.230171C0.0526785 0.336278 0 0.480191 0 0.630249V17.6041C0 17.7542 0.0526785 17.8981 0.146447 18.0042C0.240215 18.1103 0.367392 18.1699 0.5 18.1699H15.5C15.6326 18.1699 15.7598 18.1103 15.8536 18.0042C15.9473 17.8981 16 17.7542 16 17.6041C16 17.4541 15.9473 17.3102 15.8536 17.204C15.7598 17.0979 15.6326 17.0383 15.5 17.0383H14V4.02502C13.9999 3.91856 13.9732 3.8143 13.923 3.72422C13.8729 3.63414 13.8013 3.5619 13.7165 3.51581C13.6317 3.46972 13.5371 3.45164 13.4436 3.46365C13.3501 3.47566 13.2615 3.51727 13.188 3.5837L8.453 7.86904L5.248 5.7971C5.1799 5.75303 5.10359 5.72771 5.02524 5.72319C4.9469 5.71866 4.86871 5.73507 4.797 5.77107L1 7.6812V0.630249ZM1 8.91916L4.972 6.9219L8.252 9.0425C8.33901 9.09863 8.43892 9.12388 8.53876 9.11501C8.63861 9.10613 8.7338 9.06353 8.812 8.99271L13 5.20188V17.0383H1V8.91916Z" fill="#333333"/>
</svg>
