<svg width="12" height="8" viewBox="0 0 12 8" fill="none" xmlns="http://www.w3.org/2000/svg">
<path d="M11.1671 1.0895L5.99947 6.70111L0.831869 1.0895C0.739541 0.989036 0.615598 0.932792 0.486534 0.932792C0.357471 0.932792 0.233529 0.989036 0.141201 1.0895C0.0964956 1.1383 0.06098 1.19654 0.0367343 1.26082C0.0124885 1.32509 0 1.39412 0 1.46384C0 1.53356 0.0124885 1.60258 0.0367343 1.66686C0.06098 1.73114 0.0964956 1.78938 0.141201 1.83818L5.63863 7.80915C5.73517 7.91399 5.86465 7.97266 5.99947 7.97266C6.13429 7.97266 6.26377 7.91399 6.36031 7.80915L11.8577 1.83933C11.9028 1.7905 11.9385 1.73211 11.963 1.66762C11.9874 1.60313 12 1.53384 12 1.46384C12 1.39384 11.9874 1.32455 11.963 1.26006C11.9385 1.19556 11.9028 1.13718 11.8577 1.08835C11.7654 0.987884 11.6415 0.931641 11.5124 0.931641C11.3833 0.931641 11.2594 0.987884 11.1671 1.08835V1.0895Z" fill="#333333"/>
</svg>
