<svg width="18" height="19" viewBox="0 0 18 19" fill="none" xmlns="http://www.w3.org/2000/svg">
<path fill-rule="evenodd" clip-rule="evenodd" d="M12.0904 13.8991C12.1358 13.0296 11.937 12.1648 11.5166 11.4036C11.0962 10.6424 10.4713 10.0157 9.71342 9.59502C9.57882 9.5167 9.41924 9.49401 9.26832 9.53172C9.1174 9.56944 8.98694 9.66462 8.90442 9.7972L7.94042 11.3492L7.13842 10.3736C7.09436 10.3201 7.03976 10.2764 6.97807 10.2451C6.91637 10.2139 6.84892 10.1959 6.77997 10.1922C6.71101 10.1886 6.64204 10.1993 6.5774 10.2237C6.51277 10.2482 6.45387 10.2858 6.40442 10.3343C5.93178 10.7935 5.56265 11.3493 5.32199 11.9643C5.08132 12.5793 4.97473 13.2391 5.00942 13.8991C5.00942 14.8435 5.38239 15.7492 6.04627 16.4169C6.71014 17.0847 7.61056 17.4598 8.54942 17.4598C9.48829 17.4598 10.3887 17.0847 11.0526 16.4169C11.7165 15.7492 12.0894 14.8435 12.0894 13.8991H12.0904ZM6.73742 11.4649C6.71636 11.4921 6.69569 11.5196 6.67542 11.5474C6.20508 12.2081 5.96944 13.0088 6.00642 13.8206C6.00837 13.8404 6.00937 13.8602 6.00942 13.88C6.00942 14.5576 6.27703 15.2074 6.75337 15.6866C7.22971 16.1657 7.87577 16.4349 8.54942 16.4349C9.22307 16.4349 9.86913 16.1657 10.3455 15.6866C10.8218 15.2074 11.0894 14.5576 11.0894 13.88L11.0924 13.8216C11.0994 13.7563 11.2554 11.9578 9.61942 10.7347C9.59263 10.7146 9.56563 10.6948 9.53842 10.6753L8.49442 12.3551C8.44401 12.4361 8.3752 12.5039 8.29363 12.553C8.21207 12.602 8.1201 12.6308 8.02529 12.6371C7.93048 12.6434 7.83555 12.6269 7.74829 12.5891C7.66104 12.5513 7.58397 12.4931 7.52342 12.4195L6.73742 11.4639V11.4649Z" fill="#333333"/>
<path fill-rule="evenodd" clip-rule="evenodd" d="M7.97442 1.89523C7.99525 1.78724 8.04507 1.68704 8.11849 1.60551C8.19191 1.52397 8.28612 1.46421 8.3909 1.43271C8.49569 1.4012 8.60705 1.39916 8.71291 1.42679C8.81877 1.45442 8.91509 1.51067 8.99142 1.58945C9.18542 1.78861 9.55842 2.18291 9.93742 2.63756C10.3094 3.08315 10.7154 3.61927 10.9494 4.09706C11.1774 4.56378 11.4194 5.16729 11.6104 5.67123L12.4994 4.18256C12.549 4.09941 12.6178 4.02951 12.6999 3.97876C12.782 3.92801 12.8751 3.89791 12.9712 3.891C13.0674 3.88409 13.1637 3.90058 13.2522 3.93908C13.3407 3.97757 13.4186 4.03694 13.4794 4.11215C14.7424 5.68129 15.3714 7.36208 15.6844 8.64555C15.8414 9.2883 15.9204 9.83448 15.9604 10.2227C15.9805 10.4167 15.9939 10.6113 16.0004 10.8061V10.8574C16.0004 14.7773 12.9094 17.9689 8.99842 17.9689C5.08842 17.9689 2.00042 14.7783 2.00042 10.8574C2.00042 9.77815 2.50742 7.23634 4.00742 5.1522C4.06554 5.07167 4.14258 5.00686 4.23167 4.96358C4.32076 4.9203 4.41912 4.89989 4.51797 4.90417C4.61682 4.90845 4.71307 4.9373 4.79813 4.98813C4.88319 5.03896 4.95441 5.11019 5.00542 5.19546L6.02042 6.89435C6.32842 6.40953 6.74042 5.72856 7.05342 5.0999C7.50342 4.19463 7.86042 2.48768 7.97442 1.89624V1.89523ZM8.79742 2.8508C8.61642 3.65549 8.31742 4.80418 7.94742 5.55052C7.45542 6.53928 6.74642 7.62561 6.50242 7.99074C6.44613 8.07474 6.3697 8.14311 6.28019 8.18953C6.19067 8.23595 6.09097 8.25892 5.99029 8.25631C5.88961 8.25371 5.79121 8.22561 5.70419 8.17462C5.61717 8.12363 5.54433 8.05139 5.49242 7.96459L4.47242 6.25764C3.37642 8.04103 3.00042 10.0457 3.00042 10.8574C3.00042 14.2351 5.65442 16.961 8.99842 16.961C12.3434 16.961 15.0004 14.2351 15.0004 10.8574V10.8293C14.9947 10.661 14.9833 10.4929 14.9664 10.3253C14.915 9.84028 14.8304 9.35935 14.7134 8.88595C14.3965 7.5658 13.8332 6.31821 13.0534 5.20954L12.0394 6.90743C11.9807 7.00551 11.8956 7.08481 11.7938 7.13611C11.6921 7.18741 11.578 7.20861 11.4647 7.19723C11.3515 7.18585 11.2438 7.14236 11.1542 7.07183C11.0645 7.0013 10.9967 6.90661 10.9584 6.7988C10.7964 6.34214 10.3994 5.25178 10.0514 4.54165C9.87442 4.17853 9.53542 3.71986 9.17142 3.28432C9.04921 3.13802 8.92452 2.99282 8.79742 2.8508Z" fill="#333333"/>
<path d="M0.15042 1.68189C0.0540141 1.58479 -9.36475e-05 1.45314 1.21674e-07 1.31591C9.38909e-05 1.17867 0.0543815 1.0471 0.15092 0.95013C0.247459 0.853159 0.378341 0.798734 0.514774 0.798828C0.651206 0.798923 0.782014 0.853528 0.87842 0.950633L17.8494 18.0211C17.9458 18.118 18 18.2496 18 18.3867C18 18.5238 17.9458 18.6554 17.8494 18.7523C17.753 18.8493 17.6223 18.9038 17.4859 18.9038C17.3496 18.9038 17.2188 18.8493 17.1224 18.7523L0.15142 1.68189H0.15042Z" fill="#333333"/>
</svg>
