<svg width="22" height="19" viewBox="0 0 22 19" fill="none" xmlns="http://www.w3.org/2000/svg">
<path d="M21.7377 1.54211C21.8833 1.39052 21.9625 1.19001 21.9588 0.98284C21.955 0.775668 21.8685 0.578003 21.7175 0.431487C21.5665 0.284972 21.3627 0.201046 21.1492 0.19739C20.9356 0.193735 20.729 0.270636 20.5727 0.411891L18.4077 2.51239L17.8912 2.01125C17.8158 1.93269 17.7248 1.86967 17.6237 1.82596C17.5226 1.78225 17.4134 1.75875 17.3027 1.75686C17.1921 1.75496 17.0821 1.77472 16.9795 1.81494C16.8769 1.85516 16.7836 1.91502 16.7054 1.99096C16.6271 2.06689 16.5654 2.15735 16.5239 2.25692C16.4825 2.35649 16.4621 2.46315 16.4641 2.57052C16.466 2.6779 16.4903 2.78379 16.5353 2.88188C16.5804 2.97998 16.6453 3.06826 16.7263 3.14147L17.8253 4.20771C17.9798 4.35747 18.1893 4.44158 18.4077 4.44158C18.6262 4.44158 18.8357 4.35747 18.9902 4.20771L21.7377 1.54211ZM13.4623 15.6453H0.823987L0.711891 15.6528C0.505007 15.6804 0.316641 15.7832 0.184853 15.9403C0.0530661 16.0975 -0.0123159 16.2973 0.00191815 16.4995C0.0161522 16.7016 0.108941 16.891 0.261536 17.0293C0.414131 17.1676 0.615154 17.2446 0.823987 17.2447H13.4623L13.5744 17.2372C13.7813 17.2096 13.9697 17.1068 14.1014 16.9496C14.2332 16.7925 14.2986 16.5926 14.2844 16.3905C14.2701 16.1883 14.1774 15.999 14.0248 15.8606C13.8722 15.7223 13.6711 15.6454 13.4623 15.6453ZM13.4623 8.70726H0.823987L0.711891 8.71472C0.505007 8.74234 0.316641 8.84512 0.184853 9.00229C0.0530661 9.15946 -0.0123159 9.3593 0.00191815 9.56144C0.0161522 9.76358 0.108941 9.95295 0.261536 10.0913C0.414131 10.2296 0.615154 10.3066 0.823987 10.3066H13.4623L13.5744 10.2992C13.7813 10.2715 13.9697 10.1688 14.1014 10.0116C14.2332 9.85442 14.2986 9.65457 14.2844 9.45243C14.2701 9.25029 14.1774 9.06093 14.0248 8.92261C13.8722 8.78429 13.6711 8.70732 13.4623 8.70726ZM13.4623 1.77668H0.823987L0.711891 1.78415C0.505007 1.81176 0.316641 1.91454 0.184853 2.07171C0.0530661 2.22888 -0.0123159 2.42873 0.00191815 2.63087C0.0161522 2.83301 0.108941 3.02237 0.261536 3.16069C0.414131 3.29902 0.615154 3.37598 0.823987 3.37605H13.4623L13.5744 3.36858C13.7813 3.34096 13.9697 3.23819 14.1014 3.08101C14.2332 2.92384 14.2986 2.724 14.2844 2.52186C14.2701 2.31972 14.1774 2.13035 14.0248 1.99203C13.8722 1.85371 13.6711 1.77674 13.4623 1.77668ZM21.7377 15.4033C21.8186 15.33 21.8836 15.2418 21.9286 15.1437C21.9737 15.0456 21.9979 14.9397 21.9999 14.8323C22.0018 14.7249 21.9815 14.6183 21.94 14.5187C21.8986 14.4191 21.8369 14.3287 21.7586 14.2527C21.6803 14.1768 21.5871 14.1169 21.4845 14.0767C21.3818 14.0365 21.2719 14.0168 21.1612 14.0186C21.0506 14.0205 20.9414 14.044 20.8403 14.0877C20.7392 14.1315 20.6482 14.1945 20.5727 14.273L18.4077 16.3735L17.8912 15.8724C17.8158 15.7938 17.7248 15.7308 17.6237 15.6871C17.5226 15.6434 17.4134 15.6199 17.3027 15.618C17.1921 15.6161 17.0821 15.6359 16.9795 15.6761C16.8769 15.7163 16.7836 15.7762 16.7054 15.8521C16.6271 15.928 16.5654 16.0185 16.5239 16.1181C16.4825 16.2176 16.4621 16.3243 16.4641 16.4317C16.466 16.539 16.4903 16.6449 16.5353 16.743C16.5804 16.8411 16.6453 16.9294 16.7263 17.0026L17.8253 18.0689C17.9798 18.2186 18.1893 18.3027 18.4077 18.3027C18.6262 18.3027 18.8357 18.2186 18.9902 18.0689L21.7377 15.4033ZM21.7377 7.34247C21.892 7.49241 21.9787 7.69566 21.9787 7.90758C21.9787 8.11949 21.892 8.32274 21.7377 8.47268L18.9902 11.1383C18.8357 11.288 18.6262 11.3722 18.4077 11.3722C18.1893 11.3722 17.9798 11.288 17.8253 11.1383L16.7263 10.072C16.6453 9.99884 16.5804 9.91055 16.5353 9.81246C16.4903 9.71436 16.466 9.60847 16.4641 9.5011C16.4621 9.39372 16.4825 9.28707 16.5239 9.1875C16.5654 9.08792 16.6271 8.99747 16.7054 8.92153C16.7836 8.84559 16.8769 8.78573 16.9795 8.74551C17.0821 8.70529 17.1921 8.68554 17.3027 8.68743C17.4134 8.68933 17.5226 8.71283 17.6237 8.75654C17.7248 8.80024 17.8158 8.86326 17.8912 8.94183L18.4077 9.44296L20.5727 7.34247C20.7273 7.19271 20.9368 7.1086 21.1552 7.1086C21.3736 7.1086 21.5831 7.19271 21.7377 7.34247Z" fill="#333333"/>
</svg>
