<svg width="20" height="19" viewBox="0 0 20 19" fill="none" xmlns="http://www.w3.org/2000/svg">
<path d="M11.875 0.630859C12.3723 0.630859 12.8492 0.85096 13.2008 1.24274C13.5525 1.63452 13.75 2.16589 13.75 2.71995V3.41632H18.125C18.6223 3.41632 19.0992 3.63642 19.4508 4.0282C19.8025 4.41998 20 4.95135 20 5.50541V16.6472C20 17.2013 19.8025 17.7327 19.4508 18.1244C19.0992 18.5162 18.6223 18.7363 18.125 18.7363H1.875C1.37772 18.7363 0.900805 18.5162 0.549175 18.1244C0.197544 17.7327 0 17.2013 0 16.6472V5.50541C0 4.95135 0.197544 4.41998 0.549175 4.0282C0.900805 3.63642 1.37772 3.41632 1.875 3.41632H6.25V2.71995C6.25 2.16589 6.44754 1.63452 6.79917 1.24274C7.15081 0.85096 7.62772 0.630859 8.125 0.630859H11.875ZM11.875 2.02359H8.125C7.95924 2.02359 7.80027 2.09695 7.68306 2.22755C7.56585 2.35814 7.5 2.53526 7.5 2.71995V3.41632H12.5V2.71995C12.5 2.53526 12.4342 2.35814 12.3169 2.22755C12.1997 2.09695 12.0408 2.02359 11.875 2.02359ZM9.5175 11.6529L1.25 9.19753V16.6472C1.25 16.8319 1.31585 17.009 1.43306 17.1396C1.55027 17.2702 1.70924 17.3436 1.875 17.3436H18.125C18.2908 17.3436 18.4497 17.2702 18.5669 17.1396C18.6842 17.009 18.75 16.8319 18.75 16.6472V9.19614L10.4825 11.6529C10.1663 11.7467 9.83366 11.7467 9.5175 11.6529ZM18.125 4.80904H1.875C1.70924 4.80904 1.55027 4.88241 1.43306 5.013C1.31585 5.1436 1.25 5.32072 1.25 5.50541V7.75606L9.83875 10.3075C9.9444 10.339 10.0556 10.339 10.1613 10.3075L18.75 7.75606V5.50541C18.75 5.32072 18.6842 5.1436 18.5669 5.013C18.4497 4.88241 18.2908 4.80904 18.125 4.80904Z" fill="#333333"/>
</svg>
