<svg width="18" height="20" viewBox="0 0 18 20" fill="none" xmlns="http://www.w3.org/2000/svg">
<path fill-rule="evenodd" clip-rule="evenodd" d="M2.963 2.86188C3.045 1.83893 3.876 0.931641 5 0.931641H13C14.124 0.931641 14.955 1.83893 15.037 2.86188C15.2102 4.99324 15.9814 7.03134 17.261 8.73912C17.685 9.29637 18 10.0166 18 10.8172V16.0195C18 16.8198 17.6839 17.5874 17.1213 18.1533C16.5587 18.7192 15.7956 19.0371 15 19.0371H3C2.20435 19.0371 1.44129 18.7192 0.87868 18.1533C0.316071 17.5874 0 16.8198 0 16.0195V10.8172C0 10.0156 0.315 9.29637 0.74 8.73912C1.45 7.80367 2.73 5.75172 2.963 2.86188ZM10 17.0254H15C15.2652 17.0254 15.5196 16.9194 15.7071 16.7308C15.8946 16.5421 16 16.2863 16 16.0195V10.8172C16 10.5527 15.893 10.2519 15.672 9.96225C14.1594 7.94741 13.2479 5.54127 13.044 3.02483C13.04 2.98259 12.954 2.90011 12.95 2.96448C12.818 4.55877 12.51 6.32405 11.534 7.63268C11.154 8.14365 10.646 8.58221 10 8.81054V17.0254ZM8 8.81054V17.0254H3C2.73478 17.0254 2.48043 16.9194 2.29289 16.7308C2.10536 16.5421 2 16.2863 2 16.0195V10.8172C2 10.5527 2.107 10.2519 2.327 9.96225C3.84034 7.94763 4.75253 5.54147 4.957 3.02483C4.96 2.96146 4.992 2.94336 5.048 2.94336C5.181 4.56581 5.469 6.2979 6.465 7.63268C6.845 8.14365 7.353 8.58221 7.999 8.81054H8ZM9 6.9668C9.357 6.9668 9.649 6.80888 9.934 6.42665C10.648 5.46907 10.836 4.10312 10.944 2.94336H7.056C7.164 4.10312 7.352 5.46807 8.066 6.42665C8.351 6.80888 8.643 6.9668 9 6.9668Z" fill="#333333"/>
</svg>
